Coordinates
version=1
nRows=32
nColumns=22
inDegrees=yes

Units are S.I. units (second, meters, Newtons, ...)
If the header above contains a line with 'inDegrees', this indicates whether rotational values are in degrees (yes) or radians (no).

endheader
time	pelvis_tilt	pelvis_list	pelvis_rotation	pelvis_tx	pelvis_ty	pelvis_tz	hip_flexion_r	hip_adduction_r	hip_rotation_r	knee_angle_r	ankle_angle_r	subtalar_angle_r	hip_flexion_l	hip_adduction_l	hip_rotation_l	knee_angle_l	ankle_angle_l	subtalar_angle_l	lumbar_extension	lumbar_bending	lumbar_rotation
      0.01000000	     -5.22692494	     -2.15989976	     -2.51035737	     -1.16043467	      0.95663198	      0.36351975	      8.81319370	      2.75579480	     -5.25053004	    -14.80991608	     11.81741239	     -1.46483016	      7.87019128	     -2.14516931	     -3.23803075	    -14.40930850	     11.08304699	     -6.39270811	     -1.99057763	      0.64477624	     -0.20584195
      0.02000000	     -5.22400132	     -2.15908296	     -2.51026425	     -1.16043042	      0.95662971	      0.36353248	      8.81085366	      2.75506536	     -5.25093611	    -14.81281019	     11.81815496	     -1.46585545	      7.86735548	     -2.14502557	     -3.23865669	    -14.41069147	     11.08062152	     -6.39417887	     -1.98451511	      0.64284857	     -0.20668807
      0.03000000	     -5.22128399	     -2.15838921	     -2.51008615	     -1.16043133	      0.95662725	      0.36354961	      8.80904753	      2.75514383	     -5.25126186	    -14.81517990	     11.81898775	     -1.46688290	      7.86433962	     -2.14508757	     -3.23928632	    -14.41093051	     11.07859188	     -6.39561771	     -1.97869837	      0.64063223	     -0.20797045
      0.04000000	     -5.21862889	     -2.15780632	     -2.50952051	     -1.16043286	      0.95662521	      0.36356960	      8.80730421	      2.75524596	     -5.25134036	    -14.81762009	     11.81995294	     -1.46793683	      7.86087939	     -2.14576722	     -3.24000680	    -14.41000546	     11.07683941	     -6.39711263	     -1.97243058	      0.63826526	     -0.20956300
      0.05000000	     -5.21605329	     -2.15725004	     -2.50850319	     -1.16043311	      0.95662369	      0.36359388	      8.80577304	      2.75610074	     -5.25128959	    -14.82029465	     11.82134870	     -1.46918646	      7.85648539	     -2.14646924	     -3.24112338	    -14.40707992	     11.07503511	     -6.39895986	     -1.96549722	      0.63525186	     -0.21165841
      0.06000000	     -5.21604189	     -2.15351452	     -2.51057197	     -1.16042538	      0.95662181	      0.36362051	      8.80716569	      2.75344390	     -5.25192582	    -14.82324348	     11.83214606	     -1.47704850	      7.83938733	     -2.14350998	     -3.24747757	    -14.37508793	     11.06468838	     -6.41107486	     -1.95603133	      0.63034471	     -0.22086626
      0.07000000	     -5.21316580	     -2.15304186	     -2.50910036	     -1.16043261	      0.95662483	      0.36364602	      8.80517854	      2.75434347	     -5.25145142	    -14.82513868	     11.83251516	     -1.47764935	      7.83685344	     -2.14453540	     -3.24688392	    -14.37583198	     11.06343044	     -6.41232483	     -1.95159733	      0.62704697	     -0.21939045
      0.08000000	     -5.21096491	     -2.15280682	     -2.50725699	     -1.16044461	      0.95662789	      0.36367939	      8.80405878	      2.75621341	     -5.25096879	    -14.82609255	     11.83359244	     -1.47838341	      7.83400071	     -2.14641919	     -3.24672222	    -14.37342058	     11.06178435	     -6.41404284	     -1.94816287	      0.62229203	     -0.21775122
      0.09000000	     -5.20953643	     -2.15233681	     -2.50685863	     -1.16046953	      0.95663036	      0.36369866	      8.80460825	      2.75657491	     -5.25092522	    -14.82577735	     11.83373950	     -1.47844267	      7.83364483	     -2.14683965	     -3.24673561	    -14.37301993	     11.06161639	     -6.41420992	     -1.94731586	      0.62196240	     -0.21757206
      0.10000000	     -5.20826115	     -2.15315870	     -2.50385277	     -1.16047915	      0.95663699	      0.36374583	      8.80348546	      2.76078368	     -5.25060263	    -14.82635146	     11.83479635	     -1.47884003	      7.83073845	     -2.15130320	     -3.24687857	    -14.36935008	     11.06008899	     -6.41540268	     -1.94298338	      0.61403829	     -0.21608741
      0.11000000	     -5.20717949	     -2.15280996	     -2.50357318	     -1.16050308	      0.95664298	      0.36376695	      8.80382937	      2.76126089	     -5.25059896	    -14.82593240	     11.83497741	     -1.47891688	      7.83055297	     -2.15195471	     -3.24687020	    -14.36848123	     11.05979659	     -6.41559765	     -1.94225909	      0.61357084	     -0.21581553
      0.12000000	     -5.20691296	     -2.15420044	     -2.50197885	     -1.16051604	      0.95664973	      0.36382093	      8.80332905	      2.76653628	     -5.25079161	    -14.82489448	     11.83568466	     -1.47942604	      7.82838469	     -2.15725376	     -3.24656524	    -14.36325405	     11.05753249	     -6.41677508	     -1.93933557	      0.60540011	     -0.21397177
      0.13000000	     -5.20598734	     -2.15387514	     -2.50195016	     -1.16053618	      0.95665589	      0.36384092	      8.80356983	      2.76683804	     -5.25081581	    -14.82455128	     11.83570305	     -1.47949384	      7.82833517	     -2.15782566	     -3.24645182	    -14.36264861	     11.05725621	     -6.41689724	     -1.93875460	      0.60526779	     -0.21374195
      0.14000000	     -5.20588882	     -2.15540729	     -2.50292748	     -1.16055082	      0.95666114	      0.36389356	      8.80334661	      2.77225429	     -5.25128744	    -14.82334017	     11.83525706	     -1.48004063	      7.82656404	     -2.16314972	     -3.24491635	    -14.35884243	     11.05467241	     -6.41776845	     -1.93695226	      0.59817647	     -0.21194812
      0.15000000	     -5.20683882	     -2.16251901	     -2.50923236	     -1.16055497	      0.95666987	      0.36393224	      8.80063515	      2.78298897	     -5.24596533	    -14.81529355	     11.82701929	     -1.48515907	      7.81621465	     -2.17201739	     -3.23485381	    -14.33990982	     11.03603432	     -6.42409784	     -1.93287959	      0.60462604	     -0.19530851
      0.16000000	     -5.20580689	     -2.16241005	     -2.51052270	     -1.16057987	      0.95667402	      0.36396691	      8.80071941	      2.78534220	     -5.24511779	    -14.81474002	     11.82588538	     -1.48567776	      7.81663202	     -2.17409258	     -3.23436398	    -14.33992471	     11.03555123	     -6.42514607	     -1.93475420	      0.60050490	     -0.19620595
      0.17000000	     -5.20510799	     -2.16196727	     -2.51063775	     -1.16059778	      0.95667699	      0.36398376	      8.80078311	      2.78568150	     -5.24505276	    -14.81462685	     11.82578832	     -1.48572173	      7.81699646	     -2.17432507	     -3.23427210	    -14.33975499	     11.03550331	     -6.42522302	     -1.93475385	      0.60038966	     -0.19620623
      0.18000000	     -5.20504072	     -2.16222806	     -2.51324632	     -1.16063353	      0.95667816	      0.36402792	      8.80243318	      2.78923481	     -5.24381030	    -14.81259213	     11.82454045	     -1.48628279	      7.81879301	     -2.17752608	     -3.23284991	    -14.33947609	     11.03459552	     -6.42600194	     -1.93960717	      0.59477811	     -0.19607452
      0.19000000	     -5.20467419	     -2.16228372	     -2.51521456	     -1.16067127	      0.95668113	      0.36405955	      8.80354879	      2.79204585	     -5.24048469	    -14.81035851	     11.82251762	     -1.48721398	      7.82072954	     -2.17969759	     -3.23105398	    -14.34023961	     11.03284556	     -6.42697597	     -1.94421447	      0.59202345	     -0.19424888
      0.20000000	     -5.20415283	     -2.16175684	     -2.51547664	     -1.16069151	      0.95668294	      0.36407772	      8.80356398	      2.79229774	     -5.24002105	    -14.80999518	     11.82228133	     -1.48732932	      7.82147157	     -2.18024981	     -3.23079966	    -14.34007344	     11.03261335	     -6.42709136	     -1.94468962	      0.59197971	     -0.19394661
      0.21000000	     -5.20512954	     -2.16195901	     -2.51764668	     -1.16073823	      0.95668445	      0.36411148	      8.80582131	      2.79525483	     -5.23695655	    -14.80558054	     11.82097263	     -1.48792214	      7.82523634	     -2.18255580	     -3.22919113	    -14.33981624	     11.03092432	     -6.42769200	     -1.95188009	      0.58857626	     -0.19200982
      0.22000000	     -5.20411023	     -2.16425730	     -2.51973967	     -1.16078349	      0.95669274	      0.36414334	      8.80022343	      2.80283394	     -5.21029707	    -14.79279300	     11.81058338	     -1.49159307	      7.83323146	     -2.18712727	     -3.22135284	    -14.35306961	     11.01831412	     -6.43115719	     -1.95844196	      0.58804370	     -0.17712345
      0.23000000	     -5.20523122	     -2.16391642	     -2.52115526	     -1.16082144	      0.95669515	      0.36416211	      8.80241287	      2.80407031	     -5.20928175	    -14.78956644	     11.80994499	     -1.49204916	      7.83533074	     -2.18801327	     -3.22217482	    -14.35032231	     11.01807655	     -6.43176863	     -1.96295554	      0.58779607	     -0.17784058
      0.24000000	     -5.20626696	     -2.16375541	     -2.52061290	     -1.16085745	      0.95669711	      0.36418007	      8.80404710	      2.80552905	     -5.20746339	    -14.78620309	     11.80891344	     -1.49248390	      7.83769027	     -2.18908513	     -3.22286101	    -14.34775177	     11.01730558	     -6.43231749	     -1.96749018	      0.58676008	     -0.17786873
      0.25000000	     -5.20719970	     -2.16346079	     -2.51906343	     -1.16089306	      0.95670076	      0.36419320	      8.80538577	      2.80666660	     -5.20519444	    -14.78283568	     11.80750467	     -1.49293802	      7.84001734	     -2.18982974	     -3.22334191	    -14.34509668	     11.01599252	     -6.43271989	     -1.97213422	      0.58602270	     -0.17778770
      0.26000000	     -5.20809694	     -2.16308976	     -2.51677712	     -1.16092897	      0.95670507	      0.36420310	      8.80682010	      2.80744131	     -5.20265497	    -14.77976950	     11.80568780	     -1.49348673	      7.84213006	     -2.19027934	     -3.22372868	    -14.34170299	     11.01414238	     -6.43295705	     -1.97721052	      0.58549909	     -0.17810396
      0.27000000	     -5.20896656	     -2.16257169	     -2.51385308	     -1.16096739	      0.95671025	      0.36420953	      8.80870449	      2.80787286	     -5.19992807	    -14.77746006	     11.80337296	     -1.49421769	      7.84383979	     -2.19045884	     -3.22419254	    -14.33692715	     11.01170036	     -6.43303018	     -1.98294500	      0.58515274	     -0.17923273
      0.28000000	     -5.20992483	     -2.16202373	     -2.51068836	     -1.16100836	      0.95671396	      0.36421286	      8.81177274	      2.80815885	     -5.19774133	    -14.77605099	     11.80116495	     -1.49496810	      7.84484242	     -2.19015528	     -3.22498317	    -14.33122701	     11.00933387	     -6.43296275	     -1.98922532	      0.58500501	     -0.18099607
      0.29000000	     -5.21102902	     -2.16132474	     -2.50690638	     -1.16105495	      0.95671879	      0.36421384	      8.81597559	      2.80781259	     -5.19556363	    -14.77589355	     11.79858413	     -1.49587613	      7.84550396	     -2.18998371	     -3.22631550	    -14.32332835	     11.00651356	     -6.43276715	     -1.99656911	      0.58498800	     -0.18386900
      0.30000000	     -5.20936501	     -2.15749420	     -2.50430003	     -1.16109069	      0.95673252	      0.36421656	      8.82484710	      2.80406883	     -5.18855361	    -14.79150372	     11.78371835	     -1.50198040	      7.83062960	     -2.18586343	     -3.22975429	    -14.29298080	     10.98649391	     -6.43102535	     -2.00327672	      0.58317879	     -0.20430827
      0.31000000	     -5.21125644	     -2.15640368	     -2.50187373	     -1.16114782	      0.95673563	      0.36421491	      8.82959392	      2.80317509	     -5.18886808	    -14.78871839	     11.78344911	     -1.50269749	      7.83285396	     -2.18520281	     -3.23090711	    -14.28630436	     10.98504375	     -6.43102753	     -2.01199640	      0.58314221	     -0.20386067
      0.32000000	     -5.20831439	     -2.14067957	     -2.50254468	     -1.16118313	      0.95675544	      0.36421170	      8.83742175	      2.78486473	     -5.19457283	    -14.80291185	     11.77863770	     -1.51730232	      7.80763446	     -2.16664352	     -3.23393086	    -14.23915558	     10.94580706	     -6.43065945	     -2.02101674	      0.56708775	     -0.20501010
